<svg xmlns="http://www.w3.org/2000/svg" id="Layer_2" data-name="Layer 2" viewBox="0 0 244.64 91.23"><defs><style>      .cls-1 {        fill: #fff;      }    </style></defs><g id="Calque_1" data-name="Calque 1"><g><g><g><polygon class="cls-1" points="36.62 73.51 36.62 36.76 .16 73.51 36.62 73.51"></polygon><polygon class="cls-1" points="22.49 36.76 0 36.76 0 73.51 22.49 36.76"></polygon></g><polygon class="cls-1" points="22.49 36.76 36.62 36.76 .16 0 22.49 36.76"></polygon></g><g><g><path class="cls-1" d="M240.43,58.24v-21.54h-6.27l-20.29,26.9v.54h19.18v9.43h7.37v-9.43h4.21v-5.9h-4.21Zm-7.32-4.95v4.95h-8.01l6-7.79c.74-1,1.53-2.11,2.21-3.32-.21,1.95-.21,4.85-.21,6.16Z"></path><path class="cls-1" d="M70.07,63.72l5.74-7.48c2.42-3.11,3.21-5.53,3.21-8.48,0-6.53-5.32-11.75-12.96-11.75s-13.11,5.21-13.11,12.8h7.64c0-3.79,1.95-5.95,5.37-5.95s5.42,2.16,5.42,5.32c0,2.27-1.47,4.58-3.69,7.16l-15,17.68v.54h26.53v-6.48h-12.43c1.32-.95,2.37-2.21,3.27-3.37Z"></path><path class="cls-1" d="M110.88,36.7h-13.17v36.87h13.17c12.75,0,18.91-7.85,18.91-18.38s-6.16-18.49-18.91-18.49Zm-.9,30.23h-4.9v-23.6h4.9c8.74,0,12.17,5.16,12.17,11.85s-3.42,11.75-12.17,11.75Z"></path><path class="cls-1" d="M155.32,36.01c-10.96,0-19.22,8.59-19.22,19.17s8.27,19.07,19.22,19.07,19.12-8.53,19.12-19.07-8.22-19.17-19.12-19.17Zm0,31.39c-7.16,0-11.59-5.53-11.59-12.22s4.42-12.32,11.59-12.32,11.48,5.64,11.48,12.32-4.37,12.22-11.48,12.22Z"></path><polygon class="cls-1" points="178.56 43.34 189.09 43.34 189.09 73.57 196.47 73.57 196.47 43.34 207 43.34 207 36.7 178.56 36.7 178.56 43.34"></polygon></g><g><path class="cls-1" d="M134.48,91.08v-9.19h3.01c.95,0,1.78,.19,2.49,.57,.7,.38,1.25,.92,1.63,1.61,.39,.69,.58,1.49,.58,2.41s-.19,1.7-.58,2.4c-.39,.7-.93,1.24-1.63,1.62-.7,.39-1.53,.58-2.49,.58h-3.01Zm1.46-1.29h1.58c.65,0,1.22-.14,1.7-.41s.85-.65,1.12-1.15c.26-.49,.39-1.08,.39-1.75s-.13-1.26-.4-1.75c-.27-.49-.64-.87-1.12-1.14-.48-.27-1.04-.41-1.69-.41h-1.58v6.6Z"></path><path class="cls-1" d="M149.15,91.08v-9.19h1.46v9.19h-1.46Z"></path><path class="cls-1" d="M157.22,91.08l3.23-9.19h1.8l3.23,9.19h-1.55l-.7-2.06h-3.74l-.72,2.06h-1.55Zm2.69-3.35h2.87l-1.63-4.81h.41l-1.65,4.81Z"></path><path class="cls-1" d="M172.09,91.08v-9.19h1.36l3.45,4.79h-.68l3.39-4.79h1.36v9.19h-1.44v-7.48l.54,.15-3.47,4.74h-.15l-3.39-4.74,.48-.15v7.48h-1.46Z"></path><path class="cls-1" d="M192.87,91.23c-.67,0-1.28-.12-1.86-.36-.57-.24-1.07-.57-1.51-1-.43-.43-.77-.93-1.01-1.5-.24-.58-.36-1.2-.36-1.89s.12-1.31,.36-1.89c.24-.58,.58-1.08,1.01-1.51,.43-.42,.93-.75,1.51-.99,.58-.23,1.2-.35,1.86-.35s1.3,.12,1.87,.35c.57,.23,1.07,.57,1.5,.99s.77,.93,1.01,1.51c.24,.58,.36,1.2,.36,1.89s-.12,1.31-.36,1.89c-.24,.58-.58,1.08-1.01,1.5-.43,.43-.93,.76-1.51,1-.58,.24-1.2,.36-1.86,.36Zm0-1.33c.48,0,.91-.09,1.31-.26,.4-.17,.75-.41,1.04-.72,.3-.31,.53-.67,.69-1.09,.16-.42,.25-.87,.25-1.35s-.08-.93-.25-1.34-.39-.77-.69-1.09c-.3-.31-.64-.55-1.04-.73-.4-.17-.84-.26-1.31-.26s-.91,.09-1.31,.26c-.4,.17-.75,.42-1.04,.73-.3,.31-.52,.67-.68,1.09s-.24,.86-.24,1.34,.08,.94,.24,1.35c.16,.41,.39,.78,.68,1.09,.3,.31,.65,.55,1.05,.72,.4,.17,.84,.26,1.31,.26Z"></path><path class="cls-1" d="M204.76,91.08v-9.19h1.17l5.16,7.12-.55,.09v-7.2h1.44v9.19h-1.17l-5.12-7.17,.53-.1v7.27h-1.46Z"></path><path class="cls-1" d="M219.4,91.08v-9.19h3.01c.95,0,1.78,.19,2.49,.57,.7,.38,1.25,.92,1.63,1.61,.39,.69,.58,1.49,.58,2.41s-.19,1.7-.58,2.4c-.39,.7-.93,1.24-1.63,1.62-.7,.39-1.53,.58-2.49,.58h-3.01Zm1.46-1.29h1.58c.65,0,1.22-.14,1.7-.41s.85-.65,1.12-1.15c.26-.49,.39-1.08,.39-1.75s-.13-1.26-.4-1.75c-.27-.49-.64-.87-1.12-1.14-.48-.27-1.04-.41-1.69-.41h-1.58v6.6Z"></path><path class="cls-1" d="M237.29,91.23c-.58,0-1.11-.11-1.6-.33-.49-.22-.91-.52-1.26-.89-.35-.38-.6-.81-.76-1.31l1.23-.52c.22,.57,.55,1,.97,1.31,.43,.3,.92,.46,1.48,.46,.33,0,.62-.05,.86-.15,.25-.1,.44-.25,.57-.44,.14-.19,.2-.41,.2-.65,0-.34-.09-.6-.28-.8-.19-.2-.47-.35-.84-.47l-1.73-.54c-.69-.21-1.22-.54-1.58-.98-.36-.44-.54-.96-.54-1.55,0-.52,.13-.97,.38-1.36,.25-.39,.61-.7,1.05-.92,.45-.22,.96-.33,1.54-.33s1.05,.1,1.51,.29c.45,.19,.84,.46,1.17,.8s.56,.73,.71,1.17l-1.21,.53c-.18-.48-.46-.86-.84-1.12-.38-.26-.82-.39-1.33-.39-.3,0-.57,.05-.8,.15-.23,.1-.41,.25-.54,.44-.13,.19-.19,.42-.19,.67,0,.3,.09,.56,.28,.79,.19,.23,.48,.4,.86,.52l1.6,.51c.73,.22,1.28,.54,1.65,.96,.37,.41,.56,.93,.56,1.55,0,.51-.13,.96-.4,1.36-.27,.39-.64,.71-1.1,.93s-1.01,.34-1.63,.34Z"></path></g></g></g></g></svg>